<mxfile host="app.diagrams.net" agent="Mozilla/5.0 (Macintosh; Intel Mac OS X 10_15_7) AppleWebKit/537.36 (KHTML, like Gecko) Chrome/137.0.0.0 Safari/537.36" version="24.8.3">
  <diagram id="f106602c-feb2-e66a-4537-3a34d633f6aa" name="Page-1">
    <mxGraphModel dx="940" dy="591" grid="1" gridSize="10" guides="1" tooltips="1" connect="1" arrows="1" fold="1" page="1" pageScale="1" pageWidth="1169" pageHeight="827" background="none" math="0" shadow="0">
      <root>
        <mxCell id="0" />
        <mxCell id="1" parent="0" />
        <mxCell id="H5XLg-262uGlo7exfHj2-715" value="&lt;b&gt;Google &lt;/b&gt;Cloud Platform" style="fillColor=#F6F6F6;strokeColor=none;shadow=0;gradientColor=none;fontSize=14;align=left;spacing=10;fontColor=#717171;9E9E9E;verticalAlign=top;spacingTop=-4;fontStyle=0;spacingLeft=40;html=1;" parent="1" vertex="1">
          <mxGeometry x="260" y="100" width="765" height="420" as="geometry" />
        </mxCell>
        <mxCell id="H5XLg-262uGlo7exfHj2-716" value="" style="shape=mxgraph.gcp2.google_cloud_platform;fillColor=#F6F6F6;strokeColor=none;shadow=0;gradientColor=none;" parent="H5XLg-262uGlo7exfHj2-715" vertex="1">
          <mxGeometry width="23" height="20" relative="1" as="geometry">
            <mxPoint x="20" y="10" as="offset" />
          </mxGeometry>
        </mxCell>
        <mxCell id="mFLzpoaPXQ4ZnFlA7rf3-15" style="edgeStyle=orthogonalEdgeStyle;rounded=0;html=1;labelBackgroundColor=none;startFill=1;startSize=4;endArrow=blockThin;endFill=1;endSize=4;jettySize=auto;orthogonalLoop=1;strokeColor=#4284F3;strokeWidth=2;fontSize=12;fontColor=#000000;align=center;dashed=0;startArrow=blockThin;" edge="1" parent="H5XLg-262uGlo7exfHj2-715">
          <mxGeometry relative="1" as="geometry">
            <mxPoint x="176" y="130" as="sourcePoint" />
            <mxPoint x="289" y="130" as="targetPoint" />
          </mxGeometry>
        </mxCell>
        <mxCell id="mFLzpoaPXQ4ZnFlA7rf3-20" style="edgeStyle=orthogonalEdgeStyle;rounded=0;html=1;labelBackgroundColor=none;startFill=1;startSize=4;endArrow=blockThin;endFill=1;endSize=4;jettySize=auto;orthogonalLoop=1;strokeColor=#4284F3;strokeWidth=2;fontSize=12;fontColor=#000000;align=center;dashed=0;startArrow=blockThin;" edge="1" parent="H5XLg-262uGlo7exfHj2-715">
          <mxGeometry relative="1" as="geometry">
            <mxPoint x="461" y="130" as="sourcePoint" />
            <mxPoint x="574" y="130" as="targetPoint" />
          </mxGeometry>
        </mxCell>
        <mxCell id="mFLzpoaPXQ4ZnFlA7rf3-21" value="Exploited Zone" style="rounded=1;absoluteArcSize=1;arcSize=2;html=1;strokeColor=#4284F3;gradientColor=none;shadow=0;dashed=1;fontSize=12;fontColor=#9E9E9E;align=left;verticalAlign=top;spacing=10;spacingTop=-4;fillColor=none;dashPattern=1 2;strokeWidth=2;" vertex="1" parent="H5XLg-262uGlo7exfHj2-715">
          <mxGeometry x="550" y="40" width="205" height="370" as="geometry" />
        </mxCell>
        <mxCell id="mFLzpoaPXQ4ZnFlA7rf3-22" style="edgeStyle=orthogonalEdgeStyle;rounded=0;html=1;labelBackgroundColor=none;startFill=1;startSize=4;endArrow=blockThin;endFill=1;endSize=4;jettySize=auto;orthogonalLoop=1;strokeColor=#4284F3;strokeWidth=2;fontSize=12;fontColor=#000000;align=center;dashed=0;startArrow=blockThin;" edge="1" parent="H5XLg-262uGlo7exfHj2-715" target="mFLzpoaPXQ4ZnFlA7rf3-25">
          <mxGeometry relative="1" as="geometry">
            <mxPoint x="460" y="240" as="sourcePoint" />
          </mxGeometry>
        </mxCell>
        <mxCell id="mFLzpoaPXQ4ZnFlA7rf3-23" style="edgeStyle=orthogonalEdgeStyle;rounded=0;html=1;labelBackgroundColor=none;startFill=1;startSize=4;endArrow=blockThin;endFill=1;endSize=4;jettySize=auto;orthogonalLoop=1;strokeColor=#4284F3;strokeWidth=2;fontSize=12;fontColor=#000000;align=center;dashed=0;startArrow=blockThin;" edge="1" parent="H5XLg-262uGlo7exfHj2-715" target="mFLzpoaPXQ4ZnFlA7rf3-26">
          <mxGeometry relative="1" as="geometry">
            <mxPoint x="460" y="350" as="sourcePoint" />
          </mxGeometry>
        </mxCell>
        <mxCell id="mFLzpoaPXQ4ZnFlA7rf3-24" value="Income: &#xa;- avg_rfd_by_district_yr: avg. &#xa;income index per district &amp; yr.&#xa;- above_below_avg_threshold: &#xa;binary classification &gt;= or &lt; 100&#xa;- weighted_avg_rfd_by_dist_yr: &#xa;population-weighted RFD." style="strokeColor=#dddddd;shadow=1;strokeWidth=1;rounded=1;absoluteArcSize=1;arcSize=2;align=left;verticalAlign=top;" vertex="1" parent="H5XLg-262uGlo7exfHj2-715">
          <mxGeometry x="572.5" y="66" width="170" height="110" as="geometry" />
        </mxCell>
        <mxCell id="mFLzpoaPXQ4ZnFlA7rf3-25" value="Incidences: &#xa;- total_by_district_year: total &#xa;count per district and year.&#xa;- top_type_by_district_year: &#xa;most common incident type.&#xa;- peak_month_by_district_year: &#xa;peak month for each district/yr.&#xa;" style="strokeColor=#dddddd;shadow=1;strokeWidth=1;rounded=1;absoluteArcSize=1;arcSize=2;align=left;verticalAlign=top;" vertex="1" parent="H5XLg-262uGlo7exfHj2-715">
          <mxGeometry x="572.5" y="181" width="170" height="110" as="geometry" />
        </mxCell>
        <mxCell id="mFLzpoaPXQ4ZnFlA7rf3-26" value="Unemployment: &#xa;- avg_by_district_gender_year: &#xa;avg by gender and district.&#xa;- avg_by_district_year: avg &#xa;unemployment by district/year.&#xa;- pct_change_by_district_year: &#xa;year-over-year % change." style="strokeColor=#dddddd;shadow=1;strokeWidth=1;rounded=1;absoluteArcSize=1;arcSize=2;align=left;verticalAlign=top;" vertex="1" parent="H5XLg-262uGlo7exfHj2-715">
          <mxGeometry x="572" y="296" width="170" height="110" as="geometry" />
        </mxCell>
        <mxCell id="H5XLg-262uGlo7exfHj2-719" value="Formatted Zone" style="rounded=1;absoluteArcSize=1;arcSize=2;html=1;strokeColor=#4284F3;gradientColor=none;shadow=0;dashed=1;fontSize=12;fontColor=#9E9E9E;align=left;verticalAlign=top;spacing=10;spacingTop=-4;fillColor=none;dashPattern=1 2;strokeWidth=2;" parent="1" vertex="1">
          <mxGeometry x="525" y="140" width="205" height="370" as="geometry" />
        </mxCell>
        <mxCell id="H5XLg-262uGlo7exfHj2-720" value="Landing Zone" style="rounded=1;absoluteArcSize=1;arcSize=2;html=1;strokeColor=#4284F3;gradientColor=none;shadow=0;dashed=1;fontSize=12;fontColor=#9E9E9E;align=left;verticalAlign=top;spacing=10;spacingTop=-4;fillColor=none;dashPattern=1 2;strokeWidth=2;" parent="1" vertex="1">
          <mxGeometry x="260" y="140" width="190" height="370" as="geometry" />
        </mxCell>
        <mxCell id="H5XLg-262uGlo7exfHj2-721" value="Architecture: Financial Services &amp;gt; Monte Carlo Simulations" style="fillColor=#4DA1F5;strokeColor=none;shadow=1;gradientColor=none;fontSize=14;align=left;spacingLeft=50;fontColor=#ffffff;html=1;" parent="1" vertex="1">
          <mxGeometry x="210" y="40" width="740" height="40" as="geometry" />
        </mxCell>
        <mxCell id="H5XLg-262uGlo7exfHj2-722" style="edgeStyle=orthogonalEdgeStyle;rounded=0;html=1;labelBackgroundColor=none;startFill=1;startSize=4;endArrow=blockThin;endFill=1;endSize=4;jettySize=auto;orthogonalLoop=1;strokeColor=#4284F3;strokeWidth=2;fontSize=12;fontColor=#000000;align=center;dashed=0;startArrow=blockThin;" parent="1" source="H5XLg-262uGlo7exfHj2-729" target="H5XLg-262uGlo7exfHj2-735" edge="1">
          <mxGeometry relative="1" as="geometry" />
        </mxCell>
        <mxCell id="H5XLg-262uGlo7exfHj2-723" style="edgeStyle=orthogonalEdgeStyle;rounded=0;html=1;labelBackgroundColor=none;startFill=1;startSize=4;endArrow=blockThin;endFill=1;endSize=4;jettySize=auto;orthogonalLoop=1;strokeColor=#4284F3;strokeWidth=2;fontSize=12;fontColor=#000000;align=center;dashed=0;startArrow=blockThin;" parent="1" source="H5XLg-262uGlo7exfHj2-731" target="H5XLg-262uGlo7exfHj2-737" edge="1">
          <mxGeometry relative="1" as="geometry" />
        </mxCell>
        <mxCell id="H5XLg-262uGlo7exfHj2-727" value="Income: &#xa;CSV format from &#xa;2007 to 2017. District and &#xa;neighborhood. Population. &#xa;Schema = Any, Codi_Districte,&#xa;Nom_Districte, Codi_Barri,&#xa;Nom_Barri, Població, Índex&#xa; " style="strokeColor=#dddddd;shadow=1;strokeWidth=1;rounded=1;absoluteArcSize=1;arcSize=2;align=left;fontStyle=0;verticalAlign=top;" parent="1" vertex="1">
          <mxGeometry x="270" y="170" width="165" height="110" as="geometry" />
        </mxCell>
        <mxCell id="H5XLg-262uGlo7exfHj2-729" value="Incidences: CSV format from&#xa;2014 to 2022. Has service &#xa;requests from across the BCN&#xa;Schema includes: District,&#xa;xy coordinates, creation and&#xa;closure dates...&#xa;" style="strokeColor=#dddddd;shadow=1;strokeWidth=1;rounded=1;absoluteArcSize=1;arcSize=2;align=left;verticalAlign=top;" parent="1" vertex="1">
          <mxGeometry x="270" y="285" width="165" height="110" as="geometry" />
        </mxCell>
        <mxCell id="H5XLg-262uGlo7exfHj2-731" value="Unemployment: JSON format&#xa;from 2011 to 2023. Has&#xa;unemployment counts for&#xa;each district&#xa;Schema: Codi_Districte... &#xa;Demanda_ocupació...Mes..." style="strokeColor=#dddddd;shadow=1;strokeWidth=1;rounded=1;absoluteArcSize=1;arcSize=2;align=left;verticalAlign=top;" parent="1" vertex="1">
          <mxGeometry x="270" y="400" width="165" height="100" as="geometry" />
        </mxCell>
        <mxCell id="H5XLg-262uGlo7exfHj2-733" value="Income: Cleaned and renamed&#xa;columns to English&#xa;(Year, Income_Index, &#xa;etc.), converted Índex&#xa;RFD to float, removed nulls.&#xa;Partitioned by: District_Name.&#xa;Format: Parquet." style="strokeColor=#dddddd;shadow=1;strokeWidth=1;rounded=1;absoluteArcSize=1;arcSize=2;align=left;verticalAlign=top;" parent="1" vertex="1">
          <mxGeometry x="547.5" y="166" width="170" height="110" as="geometry" />
        </mxCell>
        <mxCell id="H5XLg-262uGlo7exfHj2-735" value="Incidences: Cleaned and &#xa;renamed column names to &#xa;English (Details, Type, &#xa;Creation_Year,  etc.), &#xa;standardized district names.&#xa;Partitioned by: District_Name.&#xa;Format: Parquet." style="strokeColor=#dddddd;shadow=1;strokeWidth=1;rounded=1;absoluteArcSize=1;arcSize=2;align=left;verticalAlign=top;" parent="1" vertex="1">
          <mxGeometry x="547.5" y="281" width="170" height="110" as="geometry" />
        </mxCell>
        <mxCell id="H5XLg-262uGlo7exfHj2-737" value="Unemployment: &#xa;Flattened nested JSON. &#xa;Cleaned and &#xa;renamed columns to English.&#xa;Partioned by: Year&#xa;Format: Parquet" style="strokeColor=#dddddd;shadow=1;strokeWidth=1;rounded=1;absoluteArcSize=1;arcSize=2;align=left;verticalAlign=top;" parent="1" vertex="1">
          <mxGeometry x="547" y="396" width="170" height="110" as="geometry" />
        </mxCell>
      </root>
    </mxGraphModel>
  </diagram>
</mxfile>
